<svg width="1465" height="1372" viewBox="0 0 1465 1372" fill="none" xmlns="http://www.w3.org/2000/svg">
<path d="M173.322 277.364L112.811 441H87.2425L26.7312 277.364H54.0039L99.1744 407.761H100.879L146.049 277.364H173.322Z" fill="#006CA9"/>
<path d="M1304.31 444.409C1288.55 444.409 1274.95 440.929 1263.51 433.969C1252.15 426.938 1243.38 417.136 1237.2 404.565C1231.09 391.923 1228.04 377.222 1228.04 360.46C1228.04 343.699 1231.09 328.926 1237.2 316.142C1243.38 303.287 1251.97 293.273 1262.98 286.099C1274.06 278.855 1286.99 275.233 1301.76 275.233C1310.28 275.233 1318.7 276.653 1327.01 279.494C1335.32 282.335 1342.88 286.952 1349.7 293.344C1356.52 299.665 1361.95 308.045 1366 318.486C1370.05 328.926 1372.07 341.781 1372.07 357.051V367.705H1245.93V345.972H1346.5C1346.5 336.739 1344.66 328.5 1340.96 321.256C1337.34 314.011 1332.16 308.294 1325.41 304.104C1318.73 299.913 1310.85 297.818 1301.76 297.818C1291.74 297.818 1283.08 300.304 1275.76 305.276C1268.52 310.176 1262.94 316.568 1259.04 324.452C1255.13 332.335 1253.18 340.787 1253.18 349.807V364.295C1253.18 376.653 1255.31 387.129 1259.57 395.723C1263.9 404.246 1269.9 410.744 1277.57 415.219C1285.25 419.622 1294.16 421.824 1304.31 421.824C1310.92 421.824 1316.89 420.901 1322.21 419.054C1327.61 417.136 1332.26 414.295 1336.17 410.531C1340.07 406.696 1343.09 401.937 1345.22 396.256L1369.51 403.074C1366.96 411.312 1362.66 418.557 1356.62 424.807C1350.59 430.986 1343.13 435.815 1334.25 439.295C1325.37 442.705 1315.39 444.409 1304.31 444.409Z" fill="#006CA9"/>
<path d="M1112.56 222.818V441H1087.42V222.818H1112.56Z" fill="#006CA9"/>
<path d="M905.7 444.409C890.359 444.409 877.148 440.787 866.069 433.543C854.989 426.298 846.467 416.32 840.501 403.607C834.535 390.893 831.552 376.369 831.552 360.034C831.552 343.415 834.606 328.749 840.714 316.036C846.893 303.251 855.487 293.273 866.495 286.099C877.575 278.855 890.501 275.233 905.273 275.233C916.779 275.233 927.148 277.364 936.381 281.625C945.614 285.886 953.178 291.852 959.073 299.523C964.968 307.193 968.626 316.142 970.046 326.369H944.904C942.987 318.912 938.725 312.307 932.12 306.554C925.586 300.73 916.779 297.818 905.7 297.818C895.898 297.818 887.305 300.375 879.918 305.489C872.603 310.531 866.886 317.669 862.766 326.902C858.718 336.064 856.694 346.824 856.694 359.182C856.694 371.824 858.683 382.832 862.66 392.207C866.708 401.582 872.39 408.862 879.705 414.047C887.092 419.232 895.756 421.824 905.7 421.824C912.234 421.824 918.164 420.688 923.491 418.415C928.817 416.142 933.327 412.875 937.021 408.614C940.714 404.352 943.342 399.239 944.904 393.273H970.046C968.626 402.932 965.11 411.632 959.499 419.374C953.96 427.044 946.609 433.152 937.447 437.697C928.356 442.172 917.773 444.409 905.7 444.409Z" fill="#006CA9"/>
<path d="M687.416 441V277.364H712.558V441H687.416ZM700.2 250.091C695.299 250.091 691.073 248.422 687.522 245.084C684.042 241.746 682.302 237.733 682.302 233.045C682.302 228.358 684.042 224.345 687.522 221.007C691.073 217.669 695.299 216 700.2 216C705.1 216 709.291 217.669 712.771 221.007C716.322 224.345 718.097 228.358 718.097 233.045C718.097 237.733 716.322 241.746 712.771 245.084C709.291 248.422 705.1 250.091 700.2 250.091Z" fill="#006CA9"/>
<path d="M459.53 342.562V441H434.388V222.818H459.53V302.932H461.661C465.496 294.48 471.249 287.768 478.92 282.797C486.661 277.754 496.959 275.233 509.814 275.233C520.965 275.233 530.731 277.47 539.111 281.945C547.492 286.348 553.991 293.131 558.607 302.293C563.295 311.384 565.638 322.96 565.638 337.023V441H540.496V338.727C540.496 325.73 537.123 315.68 530.376 308.578C523.699 301.405 514.431 297.818 502.57 297.818C494.331 297.818 486.945 299.558 480.411 303.038C473.948 306.518 468.834 311.597 465.07 318.273C461.377 324.949 459.53 333.045 459.53 342.562Z" fill="#006CA9"/>
<path d="M304.315 444.409C288.548 444.409 274.947 440.929 263.512 433.969C252.148 426.938 243.377 417.136 237.198 404.565C231.09 391.923 228.036 377.222 228.036 360.46C228.036 343.699 231.09 328.926 237.198 316.142C243.377 303.287 251.971 293.273 262.979 286.099C274.059 278.855 286.985 275.233 301.758 275.233C310.281 275.233 318.697 276.653 327.006 279.494C335.316 282.335 342.88 286.952 349.698 293.344C356.516 299.665 361.95 308.045 365.998 318.486C370.046 328.926 372.07 341.781 372.07 357.051V367.705H245.934V345.972H346.502C346.502 336.739 344.656 328.5 340.962 321.256C337.34 314.011 332.156 308.294 325.408 304.104C318.732 299.913 310.849 297.818 301.758 297.818C291.744 297.818 283.079 300.304 275.763 305.276C268.519 310.176 262.944 316.568 259.038 324.452C255.131 332.335 253.178 340.787 253.178 349.807V364.295C253.178 376.653 255.309 387.129 259.57 395.723C263.903 404.246 269.904 410.744 277.575 415.219C285.245 419.622 294.158 421.824 304.315 421.824C310.92 421.824 316.886 420.901 322.212 419.054C327.61 417.136 332.262 414.295 336.168 410.531C340.075 406.696 343.093 401.937 345.224 396.256L369.514 403.074C366.957 411.312 362.66 418.557 356.623 424.807C350.586 430.986 343.129 435.815 334.251 439.295C325.373 442.705 315.394 444.409 304.315 444.409Z" fill="#006CA9"/>
<path d="M173.322 733.364L112.811 897H87.2425L26.7312 733.364H54.0039L99.1744 863.761H100.879L146.049 733.364H173.322Z" fill="#006CA9"/>
<path d="M1304.31 900.409C1288.55 900.409 1274.95 896.929 1263.51 889.969C1252.15 882.938 1243.38 873.136 1237.2 860.565C1231.09 847.923 1228.04 833.222 1228.04 816.46C1228.04 799.699 1231.09 784.926 1237.2 772.142C1243.38 759.287 1251.97 749.273 1262.98 742.099C1274.06 734.855 1286.99 731.233 1301.76 731.233C1310.28 731.233 1318.7 732.653 1327.01 735.494C1335.32 738.335 1342.88 742.952 1349.7 749.344C1356.52 755.665 1361.95 764.045 1366 774.486C1370.05 784.926 1372.07 797.781 1372.07 813.051V823.705H1245.93V801.972H1346.5C1346.5 792.739 1344.66 784.5 1340.96 777.256C1337.34 770.011 1332.16 764.294 1325.41 760.104C1318.73 755.913 1310.85 753.818 1301.76 753.818C1291.74 753.818 1283.08 756.304 1275.76 761.276C1268.52 766.176 1262.94 772.568 1259.04 780.452C1255.13 788.335 1253.18 796.787 1253.18 805.807V820.295C1253.18 832.653 1255.31 843.129 1259.57 851.723C1263.9 860.246 1269.9 866.744 1277.57 871.219C1285.25 875.622 1294.16 877.824 1304.31 877.824C1310.92 877.824 1316.89 876.901 1322.21 875.054C1327.61 873.136 1332.26 870.295 1336.17 866.531C1340.07 862.696 1343.09 857.937 1345.22 852.256L1369.51 859.074C1366.96 867.312 1362.66 874.557 1356.62 880.807C1350.59 886.986 1343.13 891.815 1334.25 895.295C1325.37 898.705 1315.39 900.409 1304.31 900.409Z" fill="#006CA9"/>
<path d="M912.558 678.818V897H887.416V678.818H912.558Z" fill="#006CA9"/>
<path d="M705.7 900.409C690.359 900.409 677.148 896.787 666.069 889.543C654.989 882.298 646.467 872.32 640.501 859.607C634.535 846.893 631.552 832.369 631.552 816.034C631.552 799.415 634.606 784.749 640.714 772.036C646.893 759.251 655.487 749.273 666.495 742.099C677.575 734.855 690.501 731.233 705.273 731.233C716.779 731.233 727.148 733.364 736.381 737.625C745.614 741.886 753.178 747.852 759.073 755.523C764.968 763.193 768.626 772.142 770.046 782.369H744.904C742.987 774.912 738.725 768.307 732.12 762.554C725.586 756.73 716.779 753.818 705.7 753.818C695.898 753.818 687.305 756.375 679.918 761.489C672.603 766.531 666.886 773.669 662.766 782.902C658.718 792.064 656.694 802.824 656.694 815.182C656.694 827.824 658.683 838.832 662.66 848.207C666.708 857.582 672.39 864.862 679.705 870.047C687.092 875.232 695.756 877.824 705.7 877.824C712.234 877.824 718.164 876.688 723.491 874.415C728.817 872.142 733.327 868.875 737.021 864.614C740.714 860.352 743.342 855.239 744.904 849.273H770.046C768.626 858.932 765.11 867.632 759.499 875.374C753.96 883.044 746.609 889.152 737.447 893.697C728.356 898.172 717.773 900.409 705.7 900.409Z" fill="#006CA9"/>
<path d="M1087.42 897V733.364H1112.56V897H1087.42ZM1100.2 706.091C1095.3 706.091 1091.07 704.422 1087.52 701.084C1084.04 697.746 1082.3 693.733 1082.3 689.045C1082.3 684.358 1084.04 680.345 1087.52 677.007C1091.07 673.669 1095.3 672 1100.2 672C1105.1 672 1109.29 673.669 1112.77 677.007C1116.32 680.345 1118.1 684.358 1118.1 689.045C1118.1 693.733 1116.32 697.746 1112.77 701.084C1109.29 704.422 1105.1 706.091 1100.2 706.091Z" fill="#006CA9"/>
<path d="M259.53 798.562V897H234.388V678.818H259.53V758.932H261.661C265.496 750.48 271.249 743.768 278.92 738.797C286.661 733.754 296.959 731.233 309.814 731.233C320.965 731.233 330.731 733.47 339.111 737.945C347.492 742.348 353.991 749.131 358.607 758.293C363.295 767.384 365.638 778.96 365.638 793.023V897H340.496V794.727C340.496 781.73 337.123 771.68 330.376 764.578C323.699 757.405 314.431 753.818 302.57 753.818C294.331 753.818 286.945 755.558 280.411 759.038C273.948 762.518 268.834 767.597 265.07 774.273C261.377 780.949 259.53 789.045 259.53 798.562Z" fill="#006CA9"/>
<path d="M504.315 900.409C488.548 900.409 474.947 896.929 463.512 889.969C452.148 882.938 443.377 873.136 437.198 860.565C431.09 847.923 428.036 833.222 428.036 816.46C428.036 799.699 431.09 784.926 437.198 772.142C443.377 759.287 451.971 749.273 462.979 742.099C474.059 734.855 486.985 731.233 501.758 731.233C510.281 731.233 518.697 732.653 527.006 735.494C535.316 738.335 542.88 742.952 549.698 749.344C556.516 755.665 561.95 764.045 565.998 774.486C570.046 784.926 572.07 797.781 572.07 813.051V823.705H445.934V801.972H546.502C546.502 792.739 544.656 784.5 540.962 777.256C537.34 770.011 532.156 764.294 525.408 760.104C518.732 755.913 510.849 753.818 501.758 753.818C491.744 753.818 483.079 756.304 475.763 761.276C468.519 766.176 462.944 772.568 459.038 780.452C455.131 788.335 453.178 796.787 453.178 805.807V820.295C453.178 832.653 455.309 843.129 459.57 851.723C463.903 860.246 469.904 866.744 477.575 871.219C485.245 875.622 494.158 877.824 504.315 877.824C510.92 877.824 516.886 876.901 522.212 875.054C527.61 873.136 532.262 870.295 536.168 866.531C540.075 862.696 543.093 857.937 545.224 852.256L569.514 859.074C566.957 867.312 562.66 874.557 556.623 880.807C550.586 886.986 543.129 891.815 534.251 895.295C525.373 898.705 515.394 900.409 504.315 900.409Z" fill="#006CA9"/>
<path d="M100 136.994C94.6496 136.994 90.0923 135.538 86.3281 132.626C82.5639 129.691 79.6875 125.441 77.6989 119.878C75.7102 114.291 74.7159 107.544 74.7159 99.6364C74.7159 91.7765 75.7102 85.0649 77.6989 79.5014C79.7112 73.9143 82.5994 69.6529 86.3636 66.7173C90.1515 63.758 94.697 62.2784 100 62.2784C105.303 62.2784 109.837 63.758 113.601 66.7173C117.389 69.6529 120.277 73.9143 122.266 79.5014C124.278 85.0649 125.284 91.7765 125.284 99.6364C125.284 107.544 124.29 114.291 122.301 119.878C120.312 125.441 117.436 129.691 113.672 132.626C109.908 135.538 105.35 136.994 100 136.994ZM100 129.182C105.303 129.182 109.422 126.625 112.358 121.511C115.294 116.398 116.761 109.106 116.761 99.6364C116.761 93.339 116.087 87.9768 114.737 83.5497C113.411 79.1226 111.494 75.7491 108.984 73.429C106.499 71.1089 103.504 69.9489 100 69.9489C94.7443 69.9489 90.6368 72.5412 87.6776 77.7259C84.7183 82.8868 83.2386 90.1903 83.2386 99.6364C83.2386 105.934 83.9015 111.284 85.2273 115.688C86.553 120.091 88.4588 123.441 90.9446 125.737C93.4541 128.034 96.4725 129.182 100 129.182Z" fill="#737370"/>
<path d="M1300.47 136.994C1297.49 136.947 1294.51 136.379 1291.53 135.29C1288.54 134.201 1285.82 132.366 1283.36 129.786C1280.9 127.181 1278.92 123.666 1277.43 119.239C1275.94 114.788 1275.19 109.201 1275.19 102.477C1275.19 96.0379 1275.79 90.3324 1277 85.3608C1278.21 80.3655 1279.96 76.1634 1282.26 72.7543C1284.55 69.3215 1287.32 66.7173 1290.57 64.9418C1293.83 63.1662 1297.52 62.2784 1301.61 62.2784C1305.68 62.2784 1309.31 63.0952 1312.48 64.7287C1315.67 66.3385 1318.28 68.5876 1320.29 71.4759C1322.3 74.3641 1323.6 77.6903 1324.2 81.4545H1315.53C1314.73 78.1875 1313.16 75.4768 1310.84 73.3224C1308.52 71.1681 1305.45 70.0909 1301.61 70.0909C1295.98 70.0909 1291.54 72.5412 1288.29 77.4418C1285.07 82.3423 1283.45 89.2197 1283.43 98.0739H1284C1285.32 96.0616 1286.9 94.3452 1288.72 92.9247C1290.57 91.4806 1292.6 90.3679 1294.83 89.5866C1297.05 88.8054 1299.41 88.4148 1301.9 88.4148C1306.06 88.4148 1309.87 89.4564 1313.33 91.5398C1316.79 93.5994 1319.56 96.4522 1321.64 100.098C1323.72 103.72 1324.76 107.875 1324.76 112.562C1324.76 117.061 1323.76 121.18 1321.75 124.92C1319.73 128.637 1316.9 131.597 1313.26 133.798C1309.64 135.976 1305.38 137.042 1300.47 136.994ZM1300.47 129.182C1303.46 129.182 1306.13 128.436 1308.5 126.945C1310.89 125.453 1312.77 123.453 1314.15 120.943C1315.54 118.434 1316.24 115.64 1316.24 112.562C1316.24 109.556 1315.57 106.821 1314.22 104.359C1312.89 101.874 1311.06 99.8968 1308.71 98.429C1306.39 96.9612 1303.74 96.2273 1300.76 96.2273C1298.51 96.2273 1296.41 96.6771 1294.47 97.5767C1292.53 98.4527 1290.83 99.66 1289.36 101.199C1287.92 102.738 1286.78 104.501 1285.95 106.49C1285.12 108.455 1284.71 110.527 1284.71 112.705C1284.71 115.593 1285.38 118.292 1286.73 120.801C1288.11 123.311 1289.98 125.335 1292.34 126.874C1294.73 128.412 1297.44 129.182 1300.47 129.182Z" fill="#737370"/>
<path d="M1099.84 136.994C1095.67 136.994 1091.92 136.166 1088.58 134.509C1085.24 132.851 1082.57 130.579 1080.55 127.69C1078.54 124.802 1077.44 121.511 1077.25 117.818H1085.77C1086.1 121.109 1087.6 123.831 1090.25 125.986C1092.92 128.116 1096.12 129.182 1099.84 129.182C1102.82 129.182 1105.47 128.483 1107.79 127.087C1110.13 125.69 1111.97 123.772 1113.29 121.334C1114.64 118.872 1115.32 116.09 1115.32 112.989C1115.32 109.816 1114.62 106.987 1113.22 104.501C1111.85 101.992 1109.96 100.015 1107.54 98.571C1105.13 97.1269 1102.37 96.393 1099.27 96.3693C1097.04 96.3456 1094.76 96.6889 1092.41 97.3991C1090.07 98.0857 1088.14 98.9735 1086.63 100.062L1078.39 99.0682L1082.79 63.2727H1120.57V71.0852H1090.18L1087.62 92.5341H1088.05C1089.54 91.3504 1091.41 90.3679 1093.66 89.5866C1095.91 88.8054 1098.25 88.4148 1100.69 88.4148C1105.14 88.4148 1109.1 89.4801 1112.58 91.6108C1116.09 93.7178 1118.83 96.6061 1120.82 100.276C1122.84 103.945 1123.84 108.135 1123.84 112.847C1123.84 117.487 1122.8 121.63 1120.72 125.276C1118.66 128.898 1115.82 131.762 1112.19 133.869C1108.57 135.953 1104.45 136.994 1099.84 136.994Z" fill="#737370"/>
<path d="M873.744 121.085V113.841L905.704 63.2727H910.96V74.4943H907.409L883.261 112.705V113.273H926.301V121.085H873.744ZM907.977 136V118.884V115.51V63.2727H916.357V136H907.977Z" fill="#737370"/>
<path d="M700.266 136.994C695.579 136.994 691.4 136.189 687.731 134.58C684.085 132.97 681.185 130.732 679.031 127.868C676.9 124.98 675.74 121.63 675.55 117.818H684.499C684.689 120.162 685.494 122.186 686.914 123.891C688.335 125.571 690.193 126.874 692.489 127.797C694.786 128.72 697.331 129.182 700.124 129.182C703.249 129.182 706.019 128.637 708.434 127.548C710.849 126.459 712.743 124.944 714.116 123.003C715.489 121.062 716.175 118.812 716.175 116.256C716.175 113.58 715.513 111.225 714.187 109.189C712.861 107.129 710.92 105.519 708.363 104.359C705.806 103.199 702.681 102.619 698.988 102.619H693.164V94.8068H698.988C701.876 94.8068 704.409 94.286 706.587 93.2443C708.789 92.2026 710.505 90.7348 711.737 88.8409C712.991 86.947 713.619 84.7216 713.619 82.1648C713.619 79.7026 713.074 77.5601 711.985 75.7372C710.896 73.9143 709.357 72.4938 707.369 71.4759C705.404 70.4579 703.084 69.9489 700.408 69.9489C697.899 69.9489 695.531 70.4105 693.306 71.3338C691.104 72.2334 689.305 73.5473 687.908 75.2756C686.512 76.9801 685.754 79.0398 685.636 81.4545H677.113C677.255 77.643 678.403 74.3049 680.558 71.4403C682.712 68.5521 685.529 66.303 689.009 64.6932C692.513 63.0833 696.36 62.2784 700.55 62.2784C705.049 62.2784 708.907 63.1899 712.127 65.0128C715.347 66.812 717.821 69.1913 719.549 72.1506C721.277 75.1098 722.141 78.3059 722.141 81.7386C722.141 85.8343 721.064 89.3262 718.91 92.2145C716.779 95.1027 713.879 97.1032 710.21 98.2159V98.7841C714.802 99.5417 718.389 101.495 720.969 104.643C723.55 107.768 724.84 111.639 724.84 116.256C724.84 120.209 723.763 123.76 721.609 126.909C719.478 130.034 716.566 132.496 712.873 134.295C709.18 136.095 704.978 136.994 700.266 136.994Z" fill="#737370"/>
<path d="M477.255 136V129.608L501.261 103.33C504.078 100.252 506.398 97.5767 508.221 95.304C510.044 93.0076 511.393 90.8532 512.269 88.8409C513.169 86.8049 513.619 84.6742 513.619 82.4489C513.619 79.892 513.003 77.6785 511.772 75.8082C510.565 73.938 508.907 72.4938 506.8 71.4759C504.693 70.4579 502.326 69.9489 499.698 69.9489C496.905 69.9489 494.466 70.5289 492.383 71.6889C490.323 72.8253 488.725 74.4233 487.589 76.483C486.476 78.5426 485.92 80.9574 485.92 83.7273H477.539C477.539 79.4659 478.522 75.7254 480.487 72.5057C482.451 69.286 485.127 66.7765 488.512 64.9773C491.921 63.178 495.745 62.2784 499.982 62.2784C504.244 62.2784 508.02 63.178 511.31 64.9773C514.601 66.7765 517.182 69.2031 519.052 72.2571C520.922 75.3111 521.857 78.7083 521.857 82.4489C521.857 85.1241 521.372 87.7401 520.401 90.2969C519.454 92.83 517.797 95.6591 515.43 98.7841C513.086 101.885 509.831 105.673 505.664 110.148L489.329 127.619V128.188H523.136V136H477.255Z" fill="#737370"/>
<path d="M309.854 63.2727V136H301.048V72.5057H300.621L282.866 84.2955V75.3466L301.048 63.2727H309.854Z" fill="#737370"/>
<line x1="303.707" y1="463.645" x2="503.707" y2="684.645" stroke="#82D1F5" stroke-width="10"/>
<line x1="903.707" y1="470.355" x2="703.707" y2="691.355" stroke="#82D1F5" stroke-width="10"/>
<line x1="702.418" y1="462.624" x2="1102.42" y2="683.624" stroke="#82D1F5" stroke-width="10"/>
<line x1="503.707" y1="470.355" x2="303.707" y2="691.355" stroke="#82D1F5" stroke-width="10"/>
<line x1="305" y1="920" x2="305" y2="1036" stroke="#82D1F5" stroke-width="10"/>
<line x1="1105" y1="920" x2="1105" y2="1036" stroke="#82D1F5" stroke-width="10"/>
<line x1="905" y1="920" x2="905" y2="1036" stroke="#82D1F5" stroke-width="10"/>
<line x1="705" y1="920" x2="705" y2="1036" stroke="#82D1F5" stroke-width="10"/>
<line x1="505" y1="920" x2="505" y2="1036" stroke="#82D1F5" stroke-width="10"/>
<line x1="1103.71" y1="470.355" x2="903.707" y2="691.355" stroke="#82D1F5" stroke-width="10"/>
<path d="M309.854 1099.27V1172H301.048V1108.51H300.621L282.866 1120.3V1111.35L301.048 1099.27H309.854Z" fill="#737370"/>
<path d="M1077.25 1172V1165.61L1101.26 1139.33C1104.08 1136.25 1106.4 1133.58 1108.22 1131.3C1110.04 1129.01 1111.39 1126.85 1112.27 1124.84C1113.17 1122.8 1113.62 1120.67 1113.62 1118.45C1113.62 1115.89 1113 1113.68 1111.77 1111.81C1110.56 1109.94 1108.91 1108.49 1106.8 1107.48C1104.69 1106.46 1102.33 1105.95 1099.7 1105.95C1096.9 1105.95 1094.47 1106.53 1092.38 1107.69C1090.32 1108.83 1088.73 1110.42 1087.59 1112.48C1086.48 1114.54 1085.92 1116.96 1085.92 1119.73H1077.54C1077.54 1115.47 1078.52 1111.73 1080.49 1108.51C1082.45 1105.29 1085.13 1102.78 1088.51 1100.98C1091.92 1099.18 1095.74 1098.28 1099.98 1098.28C1104.24 1098.28 1108.02 1099.18 1111.31 1100.98C1114.6 1102.78 1117.18 1105.2 1119.05 1108.26C1120.92 1111.31 1121.86 1114.71 1121.86 1118.45C1121.86 1121.12 1121.37 1123.74 1120.4 1126.3C1119.45 1128.83 1117.8 1131.66 1115.43 1134.78C1113.09 1137.89 1109.83 1141.67 1105.66 1146.15L1089.33 1163.62V1164.19H1123.14V1172H1077.25Z" fill="#737370"/>
<path d="M909.854 1099.27V1172H901.048V1108.51H900.621L882.866 1120.3V1111.35L901.048 1099.27H909.854Z" fill="#737370"/>
<path d="M709.854 1099.27V1172H701.048V1108.51H700.621L682.866 1120.3V1111.35L701.048 1099.27H709.854Z" fill="#737370"/>
<path d="M509.854 1099.27V1172H501.048V1108.51H500.621L482.866 1120.3V1111.35L501.048 1099.27H509.854Z" fill="#737370"/>
<path d="M396.018 1167.03V1120.15H403.973V1167.03H396.018ZM376.558 1147.57V1139.61H423.433V1147.57H376.558Z" fill="#737370"/>
<path d="M996.018 1167.03V1120.15H1003.97V1167.03H996.018ZM976.558 1147.57V1139.61H1023.43V1147.57H976.558Z" fill="#737370"/>
<path d="M796.018 1167.03V1120.15H803.973V1167.03H796.018ZM776.558 1147.57V1139.61H823.433V1147.57H776.558Z" fill="#737370"/>
<path d="M596.018 1167.03V1120.15H603.973V1167.03H596.018ZM576.558 1147.57V1139.61H623.433V1147.57H576.558Z" fill="#737370"/>
<line x1="199.98" y1="1202.5" x2="1200.02" y2="1202.5" stroke="#737370" stroke-width="10"/>
<path d="M699.836 1308.99C695.669 1308.99 691.917 1308.17 688.579 1306.51C685.241 1304.85 682.565 1302.58 680.553 1299.69C678.541 1296.8 677.44 1293.51 677.251 1289.82H685.773C686.105 1293.11 687.596 1295.83 690.248 1297.99C692.923 1300.12 696.119 1301.18 699.836 1301.18C702.819 1301.18 705.47 1300.48 707.79 1299.09C710.134 1297.69 711.969 1295.77 713.295 1293.33C714.644 1290.87 715.319 1288.09 715.319 1284.99C715.319 1281.82 714.62 1278.99 713.224 1276.5C711.85 1273.99 709.957 1272.02 707.542 1270.57C705.127 1269.13 702.369 1268.39 699.268 1268.37C697.042 1268.35 694.758 1268.69 692.414 1269.4C690.07 1270.09 688.141 1270.97 686.626 1272.06L678.387 1271.07L682.79 1235.27H720.574V1243.09H690.177L687.62 1264.53H688.046C689.537 1263.35 691.408 1262.37 693.657 1261.59C695.906 1260.81 698.25 1260.41 700.688 1260.41C705.139 1260.41 709.104 1261.48 712.584 1263.61C716.088 1265.72 718.834 1268.61 720.823 1272.28C722.835 1275.95 723.841 1280.14 723.841 1284.85C723.841 1289.49 722.8 1293.63 720.716 1297.28C718.657 1300.9 715.816 1303.76 712.194 1305.87C708.572 1307.95 704.452 1308.99 699.836 1308.99Z" fill="#737370"/>
<path d="M1254.06 1236L1248.59 1230.6L1275.01 1204.18L1248.59 1177.83L1254.06 1172.36L1285.88 1204.18L1254.06 1236ZM1212.79 1216.54V1208.73H1276.08L1268.26 1216.54H1212.79ZM1212.79 1199.64V1191.82H1268.26L1276.08 1199.64H1212.79Z" fill="#737370"/>
<path d="M1333.64 1163.27V1236H1318.26V1177.87H1317.84L1301.18 1188.31V1174.67L1319.19 1163.27H1333.64ZM1356 1236.92C1353.66 1236.92 1351.65 1236.09 1349.97 1234.44C1348.31 1232.76 1347.48 1230.74 1347.48 1228.4C1347.48 1226.08 1348.31 1224.09 1349.97 1222.43C1351.65 1220.78 1353.66 1219.95 1356 1219.95C1358.28 1219.95 1360.26 1220.78 1361.97 1222.43C1363.67 1224.09 1364.53 1226.08 1364.53 1228.4C1364.53 1229.96 1364.12 1231.4 1363.32 1232.7C1362.54 1233.98 1361.51 1235.01 1360.23 1235.79C1358.95 1236.54 1357.54 1236.92 1356 1236.92ZM1376.8 1236V1224.92L1402.69 1200.95C1404.89 1198.82 1406.74 1196.9 1408.23 1195.2C1409.75 1193.49 1410.89 1191.82 1411.68 1190.19C1412.46 1188.53 1412.85 1186.75 1412.85 1184.83C1412.85 1182.7 1412.36 1180.86 1411.39 1179.32C1410.42 1177.76 1409.09 1176.57 1407.41 1175.74C1405.73 1174.88 1403.83 1174.46 1401.7 1174.46C1399.47 1174.46 1397.53 1174.91 1395.87 1175.81C1394.22 1176.71 1392.94 1178 1392.04 1179.68C1391.14 1181.36 1390.69 1183.36 1390.69 1185.68H1376.09C1376.09 1180.92 1377.17 1176.79 1379.32 1173.29C1381.48 1169.78 1384.5 1167.07 1388.38 1165.15C1392.26 1163.24 1396.74 1162.28 1401.8 1162.28C1407.01 1162.28 1411.55 1163.2 1415.4 1165.05C1419.29 1166.87 1422.3 1169.4 1424.46 1172.65C1426.61 1175.89 1427.69 1179.61 1427.69 1183.8C1427.69 1186.54 1427.15 1189.26 1426.06 1191.93C1424.99 1194.61 1423.09 1197.58 1420.34 1200.84C1417.59 1204.09 1413.72 1207.98 1408.73 1212.53L1398.11 1222.93V1223.43H1428.65V1236H1376.8Z" fill="#FA8F00"/>
</svg>
